<svg xmlns="http://www.w3.org/2000/svg" viewBox="0 0 660 420" fill="none" role="img" aria-label="NJD EXIT">
  <!-- ===== الصف العلوي: NJD (أسود) ===== -->
  <g stroke="#111418" stroke-width="46" stroke-linecap="square" stroke-linejoin="miter">
    <!-- N -->
    <path d="M95 250 V55 L205 250 V55"/>
    <!-- J -->
    <path d="M320 55 V198 Q320 250 268 250 Q228 250 226 212"/>
  </g>
  <!-- شرطة برتقالية فوق J -->
  <rect x="262" y="20" width="92" height="22" rx="4" fill="#C9621E"/>
  <!-- D (مملوء، يسار مستقيم) -->
  <path fill="#111418" fill-rule="evenodd"
        d="M420 50 H476 A100 100 0 0 1 476 250 H420 Z
           M466 92 H476 A58 58 0 0 1 476 208 H466 Z"/>

  <!-- ===== الصف السفلي: EXIT (برتقالي) متداخل ===== -->
  <g stroke="#C9621E" stroke-width="40" stroke-linecap="square" stroke-linejoin="miter">
    <!-- E -->
    <path d="M172 212 H92 V378 H172 M92 295 H150"/>
    <!-- X -->
    <path d="M212 212 L300 378 M300 212 L212 378"/>
    <!-- I -->
    <path d="M362 212 V378 M338 212 H386 M338 378 H386"/>
    <!-- T -->
    <path d="M430 212 H520 M475 212 V378"/>
  </g>
</svg>
