<svg xmlns="http://www.w3.org/2000/svg" viewBox="-20 -20 2244 1292"><path transform="translate(0,709) scale(1.0,-1.0)" d="M709 0H513L252 394V0H56V705H252L513 306V705H709Z" fill="#0B0B0C"/><path transform="translate(825,709) scale(1.0,-1.0)" d="M523 705V238Q523 119 458.5 56.0Q394 -7 281 -7Q161 -7 89.5 60.0Q18 127 18 253H212Q213 170 273 170Q327 170 327 238V705Z" fill="#0B0B0C"/><path transform="translate(1469,709) scale(1.0,-1.0)" d="M703 353Q703 251 657.5 171.0Q612 91 528.5 45.5Q445 0 335 0H56V705H335Q446 705 529.5 660.5Q613 616 658.0 536.0Q703 456 703 353ZM504 353Q504 440 455.0 487.5Q406 535 320 535H252V173H320Q406 173 455.0 220.0Q504 267 504 353Z" fill="#0B0B0C"/><path transform="translate(0,1251.65) scale(0.85,-0.85)" d="M252 548V433H477V284H252V157H507V0H56V705H507V548Z" fill="#E8951F"/><path transform="translate(447.325,1251.65) scale(0.85,-0.85)" d="M497 0 360 199 243 0H20L249 361L12 705H243L376 511L490 705H713L487 350L728 0Z" fill="#E8951F"/><path transform="translate(1097.0,1251.65) scale(0.85,-0.85)" d="M0 705H360V590H278V115H360V0H0V115H82V590H0Z" fill="#E8951F"/><path transform="translate(1650.6,1251.65) scale(0.85,-0.85)" d="M587 705V549H399V0H203V549H17V705Z" fill="#E8951F"/><path transform="translate(825,709) scale(1.0,-1.0)" d="M523 705V238Q523 119 458.5 56.0Q394 -7 281 -7Q161 -7 89.5 60.0Q18 127 18 253H212Q213 170 273 170Q327 170 327 238V705Z" fill="#0B0B0C"/><path transform="translate(1469,709) scale(1.0,-1.0)" d="M703 353Q703 251 657.5 171.0Q612 91 528.5 45.5Q445 0 335 0H56V705H335Q446 705 529.5 660.5Q613 616 658.0 536.0Q703 456 703 353ZM504 353Q504 440 455.0 487.5Q406 535 320 535H252V173H320Q406 173 455.0 220.0Q504 267 504 353Z" fill="#0B0B0C"/></svg>